<svg width="512" height="512" viewBox="0 0 512 512" fill="none" xmlns="http://www.w3.org/2000/svg">
<g clip-path="url(#clip0_618_6204)">
<rect width="512" height="512" rx="256" fill="#FFB319"/>
<path d="M551.011 56.0351H313.889C298.555 56.0988 283.868 62.2182 273.026 73.0607C262.183 83.9032 256.064 98.5904 256 113.924V397.904C256.009 413.315 262.138 428.092 273.038 438.986C283.939 449.88 298.72 456 314.131 456H551.253C566.665 456 581.445 449.88 592.346 438.986C603.246 428.092 609.375 413.315 609.384 397.904V113.924C609.357 106.287 607.825 98.7305 604.877 91.6859C601.928 84.6412 597.62 78.2467 592.199 72.8675C586.778 67.4884 580.351 63.2301 573.283 60.336C566.216 57.4419 558.648 56.0032 551.011 56.0351Z" fill="white" stroke="#18181A" stroke-width="28.806"/>
<path d="M551.011 56.0351H313.889C298.555 56.0988 283.868 62.2182 273.026 73.0607C262.183 83.9032 256.064 98.5904 256 113.924V397.904C256.009 413.315 262.138 428.092 273.038 438.986C283.939 449.88 298.72 456 314.131 456H551.253C566.665 456 581.445 449.88 592.346 438.986C603.246 428.092 609.375 413.315 609.384 397.904V113.924C609.357 106.287 607.825 98.7305 604.877 91.6859C601.928 84.6412 597.62 78.2467 592.199 72.8675C586.778 67.4884 580.351 63.2301 573.283 60.336C566.216 57.4419 558.648 56.0032 551.011 56.0351Z" fill="white" stroke="#18181A" stroke-width="10"/>
<path d="M393.277 172.931H543.29M393.277 256.167H543.29M393.277 339.404H543.29" stroke="#18181A" stroke-width="23.0656" stroke-linecap="round" stroke-linejoin="round"/>
<path d="M393.277 172.931H543.29M393.277 256.167H543.29M393.277 339.404H543.29" stroke="#18181A" stroke-width="23.0656" stroke-linecap="round" stroke-linejoin="round"/>
<path d="M338.123 193.476C343.571 193.476 348.795 191.312 352.647 187.46C356.5 183.608 358.664 178.383 358.664 172.935C358.664 167.487 356.5 162.263 352.647 158.41C348.795 154.558 343.571 152.394 338.123 152.394C332.675 152.394 327.45 154.558 323.598 158.41C319.746 162.263 317.582 167.487 317.582 172.935C317.582 178.383 319.746 183.608 323.598 187.46C327.45 191.312 332.675 193.476 338.123 193.476ZM338.123 276.748C343.58 276.748 348.813 274.58 352.672 270.721C356.531 266.862 358.698 261.629 358.698 256.172C358.698 250.715 356.531 245.481 352.672 241.623C348.813 237.764 343.58 235.596 338.123 235.596C332.666 235.596 327.432 237.764 323.573 241.623C319.715 245.481 317.547 250.715 317.547 256.172C317.547 261.629 319.715 266.862 323.573 270.721C327.432 274.58 332.666 276.748 338.123 276.748ZM338.123 359.846C343.548 359.846 348.75 357.691 352.586 353.855C356.422 350.019 358.577 344.816 358.577 339.391C358.577 333.966 356.422 328.764 352.586 324.928C348.75 321.092 343.548 318.936 338.123 318.936C332.698 318.936 327.495 321.092 323.659 324.928C319.823 328.764 317.668 333.966 317.668 339.391C317.668 344.816 319.823 350.019 323.659 353.855C327.495 357.691 332.698 359.846 338.123 359.846Z" fill="#18181A"/>
<path d="M338.123 193.476C343.571 193.476 348.795 191.312 352.647 187.46C356.5 183.608 358.664 178.383 358.664 172.935C358.664 167.487 356.5 162.263 352.647 158.41C348.795 154.558 343.571 152.394 338.123 152.394C332.675 152.394 327.45 154.558 323.598 158.41C319.746 162.263 317.582 167.487 317.582 172.935C317.582 178.383 319.746 183.608 323.598 187.46C327.45 191.312 332.675 193.476 338.123 193.476ZM338.123 276.748C343.58 276.748 348.813 274.58 352.672 270.721C356.531 266.862 358.698 261.629 358.698 256.172C358.698 250.715 356.531 245.481 352.672 241.623C348.813 237.764 343.58 235.596 338.123 235.596C332.666 235.596 327.432 237.764 323.573 241.623C319.715 245.481 317.547 250.715 317.547 256.172C317.547 261.629 319.715 266.862 323.573 270.721C327.432 274.58 332.666 276.748 338.123 276.748ZM338.123 359.846C343.548 359.846 348.75 357.691 352.586 353.855C356.422 350.019 358.577 344.816 358.577 339.391C358.577 333.966 356.422 328.764 352.586 324.928C348.75 321.092 343.548 318.936 338.123 318.936C332.698 318.936 327.495 321.092 323.659 324.928C319.823 328.764 317.668 333.966 317.668 339.391C317.668 344.816 319.823 350.019 323.659 353.855C327.495 357.691 332.698 359.846 338.123 359.846Z" fill="#18181A"/>
<path d="M186.532 384.75C179.727 384.75 173.683 382.226 168.832 377.589L168.367 377.134L168.355 377.122L72.429 280.884L71.7991 280.238C68.6928 276.981 66.2572 273.257 64.5901 269.089C62.9044 264.874 62.0003 260.492 62.0003 256C62.0003 251.508 62.9044 247.126 64.5901 242.911C66.3683 238.466 69.0206 234.525 72.429 231.116L168.679 134.866C173.61 129.935 179.854 127.232 186.938 127.409C193.835 127.582 199.878 130.36 204.697 135.179C209.624 140.106 212.313 146.319 212.313 153.344C212.313 160.368 209.624 166.581 204.697 171.509L120.205 256.001L205.009 340.804C209.994 345.789 212.64 352.102 212.466 359.213C212.297 366.147 209.568 372.263 204.697 377.134C199.769 382.061 193.556 384.75 186.532 384.75Z" fill="white" stroke="black" stroke-width="20" stroke-linejoin="round"/>
</g>
<defs>
<clipPath id="clip0_618_6204">
<rect width="512" height="512" rx="256" fill="white"/>
</clipPath>
</defs>
</svg>
