<svg width="64" height="64" viewBox="0 0 64 64" fill="none" xmlns="http://www.w3.org/2000/svg">
<g clip-path="url(#clip0_617_6183)">
<path d="M0 0H64V64H0V0Z" fill="#D6E3E8"/>
<mask id="mask0_617_6183" style="mask-type:luminance" maskUnits="userSpaceOnUse" x="10" y="9" width="44" height="46">
<path d="M10.6641 9.86914H53.2721V54.1347H10.6641V9.86914Z" fill="white"/>
</mask>
<g mask="url(#mask0_617_6183)">
<path d="M39.3106 11.1562H17.3682C16.6618 11.1567 15.9624 11.2962 15.3099 11.5669C14.6574 11.8377 14.0647 12.2342 13.5655 12.734C13.0662 13.2338 12.6704 13.8271 12.4004 14.4799C12.1305 15.1327 11.9918 15.8322 11.9922 16.5387V44.209C11.9922 45.6351 12.5585 47.0029 13.5666 48.0116C14.5747 49.0203 15.9421 49.5874 17.3682 49.5882H39.3106C40.017 49.5882 40.7165 49.4491 41.3691 49.1788C42.0218 48.9084 42.6148 48.5122 43.1143 48.0127C43.6138 47.5132 44.01 46.9202 44.2803 46.2676C44.5507 45.6149 44.6898 44.9155 44.6898 44.209V16.5387C44.6902 15.8322 44.5515 15.1327 44.2815 14.4799C44.0116 13.8271 43.6157 13.2338 43.1165 12.734C42.6173 12.2342 42.0246 11.8377 41.3721 11.5669C40.7196 11.2962 40.0202 11.1567 39.3138 11.1562H39.3106Z" fill="#D6E3E8" stroke="#18181A" stroke-width="2.6656"/>
<path d="M46.5648 15.8079H24.6224C23.2035 15.8138 21.8444 16.3801 20.8411 17.3834C19.8378 18.3867 19.2715 19.7458 19.2656 21.1647V47.4431C19.2665 48.8692 19.8336 50.2366 20.8423 51.2447C21.851 52.2528 23.2187 52.8191 24.6448 52.8191H46.5872C48.0133 52.8191 49.3811 52.2528 50.3898 51.2447C51.3985 50.2366 51.9656 48.8692 51.9664 47.4431V21.1647C51.9639 20.4581 51.8222 19.7588 51.5493 19.1069C51.2765 18.455 50.8778 17.8633 50.3762 17.3655C49.8746 16.8678 49.2798 16.4737 48.6258 16.2059C47.9718 15.9381 47.2715 15.805 46.5648 15.8079Z" fill="white" stroke="#18181A" stroke-width="2.6656"/>
<path d="M31.9688 26.625H45.8504M31.9688 34.3274H45.8504M31.9688 42.0298H45.8504" stroke="#18181A" stroke-width="2.1344" stroke-linecap="round" stroke-linejoin="round"/>
<path d="M26.8649 28.5262C27.3691 28.5262 27.8525 28.3259 28.209 27.9695C28.5655 27.613 28.7657 27.1295 28.7657 26.6254C28.7657 26.1213 28.5655 25.6378 28.209 25.2813C27.8525 24.9249 27.3691 24.7246 26.8649 24.7246C26.3608 24.7246 25.8773 24.9249 25.5209 25.2813C25.1644 25.6378 24.9641 26.1213 24.9641 26.6254C24.9641 27.1295 25.1644 27.613 25.5209 27.9695C25.8773 28.3259 26.3608 28.5262 26.8649 28.5262ZM26.8649 36.2318C27.3699 36.2318 27.8542 36.0312 28.2113 35.6741C28.5683 35.3171 28.7689 34.8328 28.7689 34.3278C28.7689 33.8228 28.5683 33.3385 28.2113 32.9815C27.8542 32.6244 27.3699 32.4238 26.8649 32.4238C26.36 32.4238 25.8757 32.6244 25.5186 32.9815C25.1615 33.3385 24.9609 33.8228 24.9609 34.3278C24.9609 34.8328 25.1615 35.3171 25.5186 35.6741C25.8757 36.0312 26.36 36.2318 26.8649 36.2318ZM26.8649 43.9214C27.3669 43.9214 27.8484 43.722 28.2033 43.367C28.5583 43.0121 28.7577 42.5306 28.7577 42.0286C28.7577 41.5266 28.5583 41.0452 28.2033 40.6902C27.8484 40.3352 27.3669 40.1358 26.8649 40.1358C26.3629 40.1358 25.8815 40.3352 25.5265 40.6902C25.1716 41.0452 24.9721 41.5266 24.9721 42.0286C24.9721 42.5306 25.1716 43.0121 25.5265 43.367C25.8815 43.722 26.3629 43.9214 26.8649 43.9214Z" fill="#18181A"/>
</g>
</g>
<defs>
<clipPath id="clip0_617_6183">
<rect width="64" height="64" rx="16" fill="white"/>
</clipPath>
</defs>
</svg>
